<?xml version="1.0" standalone="no"?>
<!DOCTYPE svg PUBLIC "-//W3C//DTD SVG 20010904//EN"
 "http://www.w3.org/TR/2001/REC-SVG-20010904/DTD/svg10.dtd">
<svg version="1.0" xmlns="http://www.w3.org/2000/svg"
 width="896.000000pt" height="896.000000pt" viewBox="0 0 896.000000 896.000000"
 preserveAspectRatio="xMidYMid meet">
<metadata>
Created by potrace 1.14, written by Peter Selinger 2001-2017
</metadata>
<g transform="translate(0.000000,896.000000) scale(0.100000,-0.100000)"
fill="#000000" stroke="none">
<path d="M5238 7970 c-104 -22 -259 -71 -347 -111 -57 -26 -72 -29 -126 -23
-33 3 -78 8 -100 10 -48 4 -372 4 -435 -1 -89 -6 -217 -21 -310 -36 -225 -35
-440 -86 -654 -155 -59 -19 -111 -33 -114 -30 -11 11 22 56 55 76 79 46 54
133 -54 186 -59 29 -205 29 -313 0 -274 -73 -503 -238 -622 -446 -49 -86 -94
-223 -118 -357 0 -2 0 -15 0 -29 0 -19 -24 -49 -91 -117 -148 -150 -287 -346
-367 -519 -28 -60 -82 -200 -86 -223 -1 -5 -4 -14 -8 -20 -5 -10 -50 -216 -64
-300 -4 -22 -8 -159 -9 -305 -2 -248 -4 -268 -24 -305 -11 -21 -21 -57 -21
-79 0 -49 33 -119 65 -140 l24 -16 -20 -46 c-40 -90 -19 -182 54 -235 41 -30
76 -40 146 -42 23 -1 41 -2 41 -2 0 -1 -27 -28 -59 -62 -120 -123 -130 -244
-26 -310 l43 -27 -20 -38 c-15 -29 -19 -51 -15 -86 8 -75 71 -124 192 -148 11
-2 59 -7 108 -11 70 -5 87 -9 88 -22 1 -20 3 -31 22 -111 14 -55 53 -253 71
-356 12 -67 59 -211 83 -257 36 -65 92 -113 177 -152 74 -34 109 -43 236 -59
98 -13 350 -4 464 17 4 1 10 -14 12 -33 10 -93 13 -119 24 -165 6 -27 13 -58
15 -68 2 -9 -11 -33 -31 -55 -41 -43 -97 -156 -113 -227 -6 -27 -12 -79 -13
-115 -8 -275 160 -452 428 -451 85 0 107 6 190 47 l51 26 40 -25 c281 -177
755 -249 970 -146 71 34 110 128 115 272 2 62 6 76 17 72 13 -5 78 -21 125
-31 11 -2 56 -6 100 -10 172 -13 360 -81 493 -178 23 -17 42 -35 43 -41 0 -5
18 -28 39 -50 45 -47 53 -70 56 -148 2 -74 29 -107 88 -107 81 0 137 47 197
166 27 55 35 64 54 59 47 -13 231 -112 228 -124 -1 -7 15 -34 36 -59 46 -57
47 -74 4 -83 -18 -4 -44 -16 -56 -28 -24 -22 -37 -23 -206 -6 -240 23 -1121
24 -1375 0 -22 -2 -78 -6 -125 -10 -47 -3 -101 -8 -120 -10 -19 -3 -75 -9
-125 -15 -49 -5 -109 -12 -133 -15 -112 -13 -353 -62 -447 -91 -178 -55 -253
-121 -207 -184 25 -34 145 -92 244 -119 100 -26 249 -57 309 -65 24 -4 61 -9
82 -12 50 -8 80 -11 157 -19 36 -4 76 -8 90 -10 23 -4 100 -11 225 -20 343
-27 1317 -27 1475 0 14 2 68 6 120 10 52 3 109 7 125 10 17 2 50 7 75 10 107
12 142 17 256 35 288 46 481 110 533 176 25 32 26 52 3 80 -52 63 -189 114
-436 163 -53 10 -99 21 -101 23 -5 4 63 109 76 118 18 12 112 138 141 188 25
44 32 70 34 118 3 57 0 68 -29 111 -39 58 -130 133 -160 133 -13 0 -45 14 -73
31 -160 102 -455 235 -825 372 l-116 43 28 40 c45 65 71 142 70 208 0 47 -7
73 -35 130 -48 98 -66 158 -71 244 -4 59 -2 74 11 79 29 11 366 -66 434 -100
56 -27 193 -162 246 -242 72 -108 95 -169 110 -293 18 -155 39 -224 83 -274
32 -35 43 -41 86 -45 40 -4 54 -1 71 15 33 32 59 79 105 192 42 104 43 106 42
225 0 100 -5 135 -27 210 -37 121 -84 236 -142 342 -26 48 -47 90 -46 93 1 3
10 5 21 6 11 1 43 4 73 9 29 4 71 9 93 11 284 31 535 111 607 193 88 100 123
298 79 440 -50 162 -160 250 -241 194 -34 -23 -35 -25 -70 -134 -55 -171 -121
-204 -440 -224 -47 -3 -114 -7 -150 -10 -36 -3 -123 -7 -195 -10 -71 -3 -196
-7 -277 -11 -82 -3 -148 -2 -148 3 0 4 26 18 58 31 125 49 305 220 436 415
322 480 410 1095 245 1715 -136 513 -441 1000 -809 1292 -36 29 -66 53 -68 54
-6 6 97 56 127 61 81 14 124 56 124 119 -2 126 -167 273 -383 342 -138 45
-342 54 -492 24z m-3384 -3466 l15 -46 -47 7 c-25 3 -48 8 -50 10 -3 3 57 75
63 75 2 0 10 -21 19 -46z m114 -242 c2 -12 6 -20 10 -18 4 2 8 -8 9 -23 l2
-27 -52 7 c-29 4 -60 8 -70 8 -24 1 -14 16 36 52 45 33 60 33 65 1z m418 -502
c16 -14 45 -37 64 -51 23 -18 43 -46 59 -85 29 -71 140 -293 175 -350 l26 -42
-48 4 c-103 9 -208 44 -249 83 -46 44 -75 135 -118 366 -14 77 -28 151 -31
165 -5 21 0 19 43 -20 27 -25 62 -56 79 -70z m454 -255 c76 -27 203 -62 258
-70 21 -3 49 -8 62 -10 14 -3 61 -8 105 -11 75 -6 119 -18 75 -21 -10 -1 -47
-9 -80 -19 -61 -17 -120 -61 -120 -89 0 -19 -43 -30 -161 -40 l-65 -6 -26 38
c-22 32 -87 147 -138 242 -11 22 -11 23 6 16 11 -4 48 -18 84 -30z"/>
</g>
</svg>
